<svg width="135" height="78" viewBox="0 0 135 78" fill="none" xmlns="http://www.w3.org/2000/svg">
<path d="M6.006 26V10.478H0.702V7.8H14.664V10.478H9.334V26H6.006ZM22.4073 26L15.7513 7.8H19.3133L24.4613 22.594L29.6353 7.8H33.1453L26.4893 26H22.4073ZM47.7183 26.312C46.3837 26.312 45.205 26.0867 44.1823 25.636C43.1597 25.168 42.3537 24.5093 41.7643 23.66C41.175 22.7933 40.8717 21.7447 40.8543 20.514H44.3643C44.399 21.3633 44.7023 22.0827 45.2743 22.672C45.8637 23.244 46.6697 23.53 47.6923 23.53C48.5763 23.53 49.2783 23.322 49.7983 22.906C50.3183 22.4727 50.5783 21.9007 50.5783 21.19C50.5783 20.4447 50.3443 19.864 49.8763 19.448C49.4257 19.032 48.819 18.694 48.0563 18.434C47.2937 18.174 46.479 17.8967 45.6123 17.602C44.2083 17.1167 43.1337 16.4927 42.3883 15.73C41.6603 14.9673 41.2963 13.9533 41.2963 12.688C41.279 11.6133 41.5303 10.6947 42.0503 9.932C42.5877 9.152 43.3157 8.554 44.2343 8.138C45.153 7.70467 46.2103 7.488 47.4063 7.488C48.6197 7.488 49.6857 7.70467 50.6043 8.138C51.5403 8.57133 52.2683 9.178 52.7883 9.958C53.3257 10.738 53.6117 11.6653 53.6463 12.74H50.0843C50.067 12.0987 49.8157 11.5353 49.3303 11.05C48.8623 10.5473 48.2037 10.296 47.3543 10.296C46.6263 10.2787 46.011 10.4607 45.5083 10.842C45.023 11.206 44.7803 11.7433 44.7803 12.454C44.7803 13.0607 44.971 13.546 45.3523 13.91C45.7337 14.2567 46.2537 14.5513 46.9123 14.794C47.571 15.0367 48.325 15.2967 49.1743 15.574C50.0757 15.886 50.899 16.25 51.6443 16.666C52.3897 17.082 52.9877 17.6367 53.4383 18.33C53.889 19.006 54.1143 19.8813 54.1143 20.956C54.1143 21.9093 53.8717 22.7933 53.3863 23.608C52.901 24.4227 52.1817 25.0813 51.2283 25.584C50.275 26.0693 49.105 26.312 47.7183 26.312ZM56.94 26V7.28H60.268V15.08C60.7013 14.3693 61.282 13.8147 62.01 13.416C62.7553 13 63.6047 12.792 64.558 12.792C66.1527 12.792 67.3833 13.2947 68.25 14.3C69.134 15.3053 69.576 16.7787 69.576 18.72V26H66.274V19.032C66.274 17.9227 66.0487 17.0733 65.598 16.484C65.1647 15.8947 64.4713 15.6 63.518 15.6C62.582 15.6 61.802 15.9293 61.178 16.588C60.5713 17.2467 60.268 18.1653 60.268 19.344V26H56.94ZM78.9464 26.312C77.6984 26.312 76.5717 26.026 75.5664 25.454C74.5784 24.882 73.7897 24.0933 73.2004 23.088C72.6284 22.0653 72.3424 20.8867 72.3424 19.552C72.3424 18.2173 72.637 17.0473 73.2264 16.042C73.8157 15.0193 74.6044 14.222 75.5924 13.65C76.5977 13.078 77.7244 12.792 78.9724 12.792C80.203 12.792 81.3124 13.078 82.3004 13.65C83.3057 14.222 84.0944 15.0193 84.6664 16.042C85.2557 17.0473 85.5504 18.2173 85.5504 19.552C85.5504 20.8867 85.2557 22.0653 84.6664 23.088C84.0944 24.0933 83.3057 24.882 82.3004 25.454C81.295 26.026 80.177 26.312 78.9464 26.312ZM78.9464 23.426C79.813 23.426 80.567 23.1053 81.2084 22.464C81.8497 21.8053 82.1704 20.8347 82.1704 19.552C82.1704 18.2693 81.8497 17.3073 81.2084 16.666C80.567 16.0073 79.8217 15.678 78.9724 15.678C78.0884 15.678 77.3257 16.0073 76.6844 16.666C76.0604 17.3073 75.7484 18.2693 75.7484 19.552C75.7484 20.8347 76.0604 21.8053 76.6844 22.464C77.3257 23.1053 78.0797 23.426 78.9464 23.426ZM90.5909 26L86.8209 13.104H90.1229L92.3589 22.386L94.9589 13.104H98.6509L101.251 22.386L103.513 13.104H106.815L103.019 26H99.5609L96.8049 16.354L94.0489 26H90.5909Z" fill="black"/>
<path d="M2.72 66V38H13C15.24 38 17.08 38.3867 18.52 39.16C19.9867 39.9067 21.08 40.9333 21.8 42.24C22.52 43.52 22.88 44.9467 22.88 46.52C22.88 48.2267 22.4267 49.7867 21.52 51.2C20.64 52.6133 19.2533 53.64 17.36 54.28L23.16 66H17.28L12.08 54.96H7.84V66H2.72ZM7.84 51.2H12.68C14.3867 51.2 15.64 50.7867 16.44 49.96C17.24 49.1333 17.64 48.04 17.64 46.68C17.64 45.3467 17.24 44.28 16.44 43.48C15.6667 42.68 14.4 42.28 12.64 42.28H7.84V51.2ZM35.9509 66.48C33.9509 66.48 32.1776 66.0533 30.6309 65.2C29.0843 64.3467 27.8709 63.1467 26.9909 61.6C26.1109 60.0533 25.6709 58.2667 25.6709 56.24C25.6709 54.1867 26.0976 52.36 26.9509 50.76C27.8309 49.16 29.0309 47.92 30.5509 47.04C32.0976 46.1333 33.9109 45.68 35.9909 45.68C37.9376 45.68 39.6576 46.1067 41.1509 46.96C42.6443 47.8133 43.8043 48.9867 44.6309 50.48C45.4843 51.9467 45.9109 53.5867 45.9109 55.4C45.9109 55.6933 45.8976 56 45.8709 56.32C45.8709 56.64 45.8576 56.9733 45.8309 57.32H30.7509C30.8576 58.8667 31.3909 60.08 32.3509 60.96C33.3376 61.84 34.5243 62.28 35.9109 62.28C36.9509 62.28 37.8176 62.0533 38.5109 61.6C39.2309 61.12 39.7643 60.5067 40.1109 59.76H45.3109C44.9376 61.0133 44.3109 62.16 43.4309 63.2C42.5776 64.2133 41.5109 65.0133 40.2309 65.6C38.9776 66.1867 37.5509 66.48 35.9509 66.48ZM35.9909 49.84C34.7376 49.84 33.6309 50.2 32.6709 50.92C31.7109 51.6133 31.0976 52.68 30.8309 54.12H40.7109C40.6309 52.8133 40.1509 51.7733 39.2709 51C38.3909 50.2267 37.2976 49.84 35.9909 49.84ZM54.7959 66L47.5159 46.16H52.8759L57.9159 61.16L62.9559 46.16H68.3159L60.9959 66H54.7959ZM74.3053 43.08C73.372 43.08 72.5986 42.8 71.9853 42.24C71.3986 41.68 71.1053 40.9733 71.1053 40.12C71.1053 39.2667 71.3986 38.5733 71.9853 38.04C72.5986 37.48 73.372 37.2 74.3053 37.2C75.2386 37.2 75.9986 37.48 76.5853 38.04C77.1986 38.5733 77.5053 39.2667 77.5053 40.12C77.5053 40.9733 77.1986 41.68 76.5853 42.24C75.9986 42.8 75.2386 43.08 74.3053 43.08ZM71.7453 66V46.16H76.8653V66H71.7453ZM91.8494 66.48C89.8494 66.48 88.076 66.0533 86.5294 65.2C84.9827 64.3467 83.7694 63.1467 82.8894 61.6C82.0094 60.0533 81.5694 58.2667 81.5694 56.24C81.5694 54.1867 81.996 52.36 82.8494 50.76C83.7294 49.16 84.9294 47.92 86.4494 47.04C87.996 46.1333 89.8094 45.68 91.8894 45.68C93.836 45.68 95.556 46.1067 97.0494 46.96C98.5427 47.8133 99.7027 48.9867 100.529 50.48C101.383 51.9467 101.809 53.5867 101.809 55.4C101.809 55.6933 101.796 56 101.769 56.32C101.769 56.64 101.756 56.9733 101.729 57.32H86.6494C86.756 58.8667 87.2894 60.08 88.2494 60.96C89.236 61.84 90.4227 62.28 91.8094 62.28C92.8494 62.28 93.716 62.0533 94.4094 61.6C95.1294 61.12 95.6627 60.5067 96.0094 59.76H101.209C100.836 61.0133 100.209 62.16 99.3294 63.2C98.476 64.2133 97.4094 65.0133 96.1294 65.6C94.876 66.1867 93.4494 66.48 91.8494 66.48ZM91.8894 49.84C90.636 49.84 89.5294 50.2 88.5694 50.92C87.6094 51.6133 86.996 52.68 86.7294 54.12H96.6094C96.5294 52.8133 96.0494 51.7733 95.1694 51C94.2894 50.2267 93.196 49.84 91.8894 49.84ZM109.214 66L103.414 46.16H108.494L111.934 60.44L115.934 46.16H121.614L125.614 60.44L129.094 46.16H134.174L128.334 66H123.014L118.774 51.16L114.534 66H109.214Z" fill="black"/>
</svg>
