<svg width="41" height="41" viewBox="0 0 41 41" fill="none" xmlns="http://www.w3.org/2000/svg">
<path d="M21.1584 30.8633L20.775 34.8117C20.6234 36.3983 19.1417 37.475 17.645 37.0883C15.3934 36.505 13.8117 34.4133 13.8117 32.015V26.9567C13.8117 25.8317 13.8117 25.2683 13.5684 24.8567C13.4318 24.6236 13.2415 24.4264 13.0134 24.2817C12.6134 24.03 12.0684 24.03 10.98 24.03H10.32C7.48168 24.03 6.06335 24.03 5.19002 23.38C4.53035 22.8855 4.06926 22.1714 3.89002 21.3667C3.64668 20.2833 4.19168 18.9283 5.28335 16.2217L5.82835 14.8717C6.14168 14.0917 6.27002 13.2467 6.20335 12.405C5.81668 7.61501 9.61502 3.58001 14.2584 3.84667L31.6317 4.84334C33.53 4.95167 34.4784 5.00667 35.335 5.76501C36.1934 6.52334 36.355 7.30501 36.6767 8.86667C37.3617 12.189 37.3304 15.6191 36.585 18.9283C36.1134 21.0083 34.1267 22.1283 32.075 21.8617C26.635 21.1617 21.7034 25.2267 21.1584 30.8617V30.8633Z" stroke="black" stroke-width="2" stroke-linecap="round" stroke-linejoin="round"/>
<path d="M28.8333 21.3333L29.0616 20.5717C30.5399 15.645 30.4616 10.38 28.8333 5.5" stroke="black" stroke-width="2" stroke-linecap="round" stroke-linejoin="round"/>
</svg>
