<svg width="72" height="37" viewBox="0 0 72 37" fill="none" xmlns="http://www.w3.org/2000/svg">
<path d="M39.7033 31.9297C38.2525 31.9297 36.9464 31.2945 36.0759 30.3063C35.2055 31.2945 33.8994 31.9297 32.4486 31.9297C30.4173 31.9297 28.6036 30.6594 28.0232 28.8237H14.1668C10.3942 28.8237 8 27.059 8 24.2357C8 22.9653 8.4352 21.9062 9.30559 21.1296C10.7564 19.7883 12.9329 19.647 13.8034 19.718H19.6073C23.8874 19.8593 27.5877 14.7769 27.8776 13.0121C28.3128 10.8943 30.2717 9.41223 32.5206 9.41223C33.6086 9.41223 34.6972 9.83569 35.5676 10.4709C36.3656 8.98825 37.9616 8 39.7753 8C41.589 8 43.185 8.98822 43.983 10.4709C44.8534 9.76477 45.9419 9.41223 47.03 9.41223C48.8437 9.41223 50.4397 10.4005 51.2377 11.8831C52.1081 11.177 53.1966 10.8245 54.2847 10.8245C56.8964 10.8245 59 12.8713 59 15.4125V26.707C59 29.2482 56.8964 31.295 54.2847 31.295C52.9791 31.295 51.8182 30.8006 50.9473 29.9537C50.0774 31.1531 48.6266 32 47.0305 32C45.5797 32 44.2736 31.3648 43.4032 30.3766C42.4599 31.2944 41.1546 31.9297 39.7033 31.9297ZM56.7518 26.6355V15.3411C56.7518 13.9998 55.5909 12.8702 54.2124 12.8702C53.4144 12.8702 52.6887 13.2233 52.1811 13.8584C51.6007 14.6349 50.8755 14.6349 50.5851 14.5645C50.0046 14.4232 49.5694 13.9997 49.4971 13.435C49.2795 12.3054 48.1915 11.4585 47.0306 11.4585C46.2326 11.4585 45.5069 11.8115 44.9993 12.4467C44.4188 13.2232 43.6937 13.2232 43.4033 13.1528C42.8228 13.0115 42.3876 12.588 42.3153 12.0233C42.0977 10.8937 41.0097 10.0468 39.8488 10.0468C38.6156 10.0468 37.6 10.8937 37.3823 12.0233C37.2371 12.588 36.8019 13.0115 36.2943 13.1528C35.9315 13.2232 35.2787 13.2232 34.6983 12.4467C34.1902 11.8115 33.4651 11.4585 32.667 11.4585C31.5061 11.4585 30.4182 12.3054 30.2005 13.3645C29.7653 15.9762 25.2676 21.9764 19.7536 21.8351H13.9497C13.5145 21.8351 11.9184 21.8351 11.0481 22.682C10.6129 23.1054 10.4677 23.5998 10.4677 24.3054C10.4677 26.4232 12.9341 26.7763 14.4579 26.7763H28.0967L28.0957 19.6469C28.0957 19.0821 28.6038 18.5883 29.1837 18.5883C29.7641 18.5883 30.2717 19.0826 30.2717 19.6469L30.2722 27.7649C30.4174 28.9648 31.5054 29.8827 32.8116 29.8827C34.1901 29.8827 35.351 28.7531 35.351 27.4118V19.6468C35.351 19.082 35.8591 18.5881 36.439 18.5881C37.0194 18.5881 37.527 19.0825 37.527 19.6468V27.2V27.7648C37.6722 28.9648 38.7602 29.8826 40.0664 29.8826C41.4449 29.8826 42.6058 28.7531 42.6058 27.4117V19.6467C42.6058 19.0819 43.1139 18.5881 43.6938 18.5881C44.2742 18.5881 44.7818 19.0824 44.7818 19.6467V27.4117V27.7648C44.927 28.9647 46.015 29.8826 47.3212 29.8826C48.6997 29.8826 49.8606 28.753 49.8606 27.4117V19.6467C49.8606 19.0819 50.3687 18.5881 50.9486 18.5881C51.529 18.5881 52.0366 19.0824 52.0366 19.6467V26.7056C52.0366 28.0469 53.1975 29.1764 54.576 29.1764C55.954 29.1764 56.7518 27.9768 56.7518 26.6355Z" fill="black"/>
</svg>
