<svg width="40" height="41" viewBox="0 0 40 41" fill="none" xmlns="http://www.w3.org/2000/svg">
<path d="M19.3416 10.1367L19.725 6.18835C19.8766 4.60169 21.3583 3.52502 22.855 3.91169C25.1066 4.49502 26.6883 6.58669 26.6883 8.98502V14.0434C26.6883 15.1684 26.6883 15.7317 26.9316 16.1434C27.07 16.3784 27.26 16.5767 27.4866 16.7184C27.8866 16.97 28.4316 16.97 29.52 16.97H30.18C33.0183 16.97 34.4366 16.97 35.31 17.62C35.965 18.1084 36.4266 18.8234 36.61 19.6334C36.8533 20.7167 36.3083 22.0717 35.2166 24.7784L34.6733 26.1284C34.3581 26.9102 34.2292 27.7547 34.2966 28.595C34.6833 33.385 30.885 37.42 26.2416 37.155L8.8683 36.1567C6.96997 36.0484 6.02164 35.9934 5.16497 35.235C4.30664 34.4767 4.14497 33.695 3.8233 32.1334C3.13869 28.811 3.16994 25.381 3.91497 22.0717C4.38664 19.9917 6.3733 18.8717 8.42497 19.1384C13.865 19.8384 18.7966 15.7717 19.3416 10.1367Z" stroke="black" stroke-width="2" stroke-linecap="round" stroke-linejoin="round"/>
<path d="M11.6666 19.6667L11.4383 20.4284C9.96013 25.3558 10.0399 30.6196 11.6666 35.5" stroke="black" stroke-width="2" stroke-linecap="round" stroke-linejoin="round"/>
</svg>
